<?xml version="1.0" encoding="utf-8"?>
<!-- Generator: Adobe Illustrator 22.1.0, SVG Export Plug-In . SVG Version: 6.00 Build 0)  -->
<svg version="1.1" id="Layer_1" xmlns="http://www.w3.org/2000/svg" xmlns:xlink="http://www.w3.org/1999/xlink" x="0px" y="0px"
	 viewBox="0 0 40 40" style="enable-background:new 0 0 40 40;" xml:space="preserve">
<style type="text/css">
	.st0{fill:#E4469C;}
	.st1{fill:#310311;}
</style>
<g id="Layer_x0020_1">
	<rect x="0" class="st0" width="40" height="40"/>
	<rect x="1.8" y="1.8" class="st1" width="36.4" height="36.4"/>
	<path class="st0" d="M11.5,10.7h3.3c0.1,0,0.2,0.1,0.2,0.2V29c0,0.1-0.1,0.2-0.2,0.2h-3.3c-0.1,0-0.2-0.1-0.2-0.2V10.8
		C11.4,10.8,11.4,10.7,11.5,10.7z"/>
	<path class="st0" d="M24.8,17.7v8.6c-3.1,0.2-4.3-2-4.4-4.2c0-1,0.2-1.9,0.5-2.7C21.7,17.9,23.2,17.6,24.8,17.7z M28.6,27.3V10.6
		l-3.9-0.1l0,4.2c0,0-0.1,0-0.2,0c-0.5,0-2.5-0.3-4.5,1.1c-1.7,1.1-3.2,2.8-3.3,6.5c-0.1,4.5,2.8,7,6.9,7.2c1.2,0.1,2.5-0.1,3.6-0.5
		c0.2-0.1,0.6-0.2,0.9-0.4c0.5-0.2,0.7-0.4,0.5-0.8L28.6,27.3z"/>
</g>
</svg>
