<?xml version="1.0" encoding="utf-8"?>
<!-- Generator: Adobe Illustrator 22.1.0, SVG Export Plug-In . SVG Version: 6.00 Build 0)  -->
<svg version="1.1" id="레이어_1" xmlns="http://www.w3.org/2000/svg" xmlns:xlink="http://www.w3.org/1999/xlink" x="0px"
	 y="0px" viewBox="0 0 40 40" style="enable-background:new 0 0 40 40;" xml:space="preserve">
<style type="text/css">
	.st0{fill:#FDB300;}
	.st1{fill:#EA6C00;}
	.st2{fill:#FDAD00;}
	.st3{fill:#FDD231;}
	.st4{fill:#FEEEB7;}
</style>
<g>
	<path class="st0" d="M8.7,3.1L20,1.9l11.3,1.2L40,14.8L20,38.1L0,14.8L8.7,3.1z"/>
	<g transform="translate(59.000000, 211.881084)">
		<polygon class="st1" points="-50.9,-197.1 -39,-173.8 -59,-197.1 		"/>
		<polygon class="st1" points="-27.1,-197.1 -39,-173.8 -19,-197.1 		"/>
		<polygon class="st2" points="-50.9,-197.1 -27.1,-197.1 -39,-173.8 		"/>
	</g>
	<g transform="translate(59.000000, 85.000000)">
		<polygon class="st3" points="-39,-83.1 -50.3,-81.9 -50.9,-70.2 		"/>
		<polygon class="st3" points="-39,-83.1 -27.7,-81.9 -27.1,-70.2 		"/>
		<polygon class="st2" points="-19,-70.2 -27.7,-81.9 -27.1,-70.2 		"/>
		<polygon class="st2" points="-59,-70.2 -50.3,-81.9 -50.9,-70.2 		"/>
		<polygon class="st4" points="-39,-83.1 -50.9,-70.2 -27.1,-70.2 		"/>
	</g>
</g>
</svg>
